<?xml version="1.0" encoding="UTF-8" standalone="no"?><!DOCTYPE svg PUBLIC "-//W3C//DTD SVG 1.1//EN" "http://www.w3.org/Graphics/SVG/1.1/DTD/svg11.dtd"><svg width="100%" height="100%" viewBox="0 0 167 74" version="1.1" xmlns="http://www.w3.org/2000/svg" xmlns:xlink="http://www.w3.org/1999/xlink" xml:space="preserve" xmlns:serif="http://www.serif.com/" style="fill-rule:evenodd;clip-rule:evenodd;stroke-linejoin:round;stroke-miterlimit:2;"><path d="M0.729,0.274c-0.688,0.395 -0.729,0.584 -0.729,3.324c0,3.61 -0.049,3.571 4.419,3.571l2.928,0l0,13.098c0,12.422 0.019,13.115 0.384,13.445c0.437,0.396 5.539,0.515 6.128,0.142c0.273,-0.172 0.329,-1.971 0.42,-13.389l0.105,-13.191l3.432,-0.105c4.313,-0.132 4.076,0.089 3.987,-3.719c-0.046,-1.92 -0.15,-2.858 -0.339,-3.046c-0.374,-0.374 -20.096,-0.498 -20.735,-0.13m23.891,0.079l-0.467,0.327l0,16.36c0,19.233 -0.437,17.02 3.362,17.02c3.69,0 3.361,0.676 3.361,-6.906c0,-6.869 -0.023,-6.75 1.298,-6.75c1.047,0 1.005,-0.073 3.71,6.533c2.897,7.078 2.745,6.777 3.502,6.939c1.178,0.252 5.224,0.191 5.774,-0.087c0.826,-0.418 0.792,-0.536 -2.093,-7.376c-1.506,-3.568 -2.737,-6.579 -2.737,-6.692c0,-0.114 0.937,-1.117 2.082,-2.23c6.262,-6.086 3.317,-15.748 -5.251,-17.226c-2.245,-0.388 -11.959,-0.319 -12.541,0.088m29.26,-0.181c-1.609,0.37 -2.116,0.595 -2.863,1.269c-1.856,1.677 -2.543,5.47 -1.854,10.235c0.592,4.098 4.542,6.214 8,4.285c3.947,-2.202 4.018,-12.742 0.101,-15.053c-0.557,-0.329 -2.732,-0.967 -2.921,-0.857c-0.024,0.013 -0.232,0.068 -0.463,0.121m12.098,0.107c-3.183,0.707 -4.255,2.733 -4.268,8.063c-0.015,5.816 1.314,7.961 5.098,8.232c4.1,0.295 5.759,-2.051 5.759,-8.144c0,-6.359 -2.232,-9.12 -6.589,-8.151m34.898,-0.001c-0.293,0.293 -0.366,15.421 -0.076,15.877c0.13,0.205 1.21,0.253 4.671,0.21l4.502,-0.057l0.063,-1.452c0.079,-1.84 0.159,-1.797 -3.372,-1.801l-2.889,-0.003l0,-2.942l2.706,0c3.201,0 3.225,-0.014 3.134,-1.925l-0.063,-1.331l-5.672,-0.21l0,-3.151l2.941,-0.105l2.942,-0.105l0.063,-1.332c0.037,-0.8 -0.036,-1.449 -0.184,-1.628c-0.33,-0.397 -8.372,-0.438 -8.766,-0.045m10.722,-0.077c-0.207,0.132 -0.253,1.902 -0.21,8.138l0.055,7.969l9.244,0l0.061,-1.385c0.082,-1.837 0.065,-1.847 -3.331,-1.918l-2.823,-0.059l0,-2.731l2.416,-0.051c3.567,-0.077 3.392,0.018 3.318,-1.793l-0.061,-1.517l-2.781,-0.059c-3.185,-0.067 -3.08,0.011 -2.956,-2.158l0.064,-1.144l2.933,-0.059c3.305,-0.066 3.257,-0.042 3.262,-1.659c0.005,-1.75 0.006,-1.749 -4.791,-1.745c-2.274,0.001 -4.254,0.078 -4.4,0.171m13.863,0.152l-0.467,0.327l0,16.349c0,19.155 -0.443,16.926 3.361,16.926c3.743,0 3.361,1.042 3.361,-9.182c0,-6.478 0.061,-8.585 0.246,-8.523c0.203,0.067 1.795,3.991 3.946,9.722c0.217,0.577 0.581,1.523 0.808,2.101c0.228,0.577 0.771,1.995 1.207,3.151c0.436,1.155 0.923,2.242 1.082,2.416c0.386,0.421 6.633,0.599 7.11,0.203c0.265,-0.219 0.307,-2.542 0.307,-16.792l0,-16.537l-0.535,-0.244c-0.306,-0.14 -1.563,-0.244 -2.941,-0.244c-3.583,0 -3.246,-1.046 -3.246,10.084c0,5.167 -0.082,9.244 -0.185,9.244c-0.173,0 -0.35,-0.44 -1.625,-4.044c-0.276,-0.78 -0.735,-2.056 -1.02,-2.836c-0.285,-0.78 -1.002,-2.789 -1.593,-4.464c-2.683,-7.606 -2.618,-7.447 -3.152,-7.718c-0.805,-0.407 -6.065,-0.359 -6.664,0.061m-49.055,0.252c-0.578,0.638 -0.556,32.584 0.022,33.107c0.51,0.462 5.725,0.519 6.1,0.068c0.156,-0.189 0.251,-2.384 0.288,-6.671l0.056,-6.389l2.941,-0.126c3.757,-0.161 4.552,-0.301 6.09,-1.073c8.12,-4.076 7.562,-15.194 -0.943,-18.758c-1.48,-0.621 -14.013,-0.756 -14.554,-0.158m-20.865,3.022c1.022,0.466 1.21,1.316 1.137,5.144l-0.067,3.476l-0.686,0.612c-0.823,0.735 -1.737,0.799 -2.733,0.192c-1.017,-0.62 -1.132,-1.166 -1.058,-5.003l0.066,-3.435l0.686,-0.613c0.745,-0.665 1.714,-0.802 2.655,-0.373m13.01,0.19c0.934,0.736 1.403,5.71 0.756,8.037c-0.562,2.024 -3.527,2.167 -4.222,0.203c-0.449,-1.268 -0.379,-6.466 0.1,-7.434c0.622,-1.256 2.287,-1.654 3.366,-0.806m-32.061,3.249c2.618,0.778 3.415,3.679 1.529,5.565c-0.987,0.987 -1.463,1.091 -4.622,1.009l-2.416,-0.063l-0.058,-3.15c-0.052,-2.778 -0.016,-3.181 0.302,-3.414c0.513,-0.375 3.939,-0.34 5.265,0.053m53.091,0.604c2.008,1.532 1.759,4.649 -0.455,5.709c-0.985,0.472 -5.196,0.7 -5.906,0.321c-0.546,-0.293 -0.722,-6.377 -0.191,-6.612c0.985,-0.435 5.777,-0.01 6.552,0.582m-23.552,10.223c-3.139,0.619 -4.303,2.768 -4.321,7.974c-0.02,5.846 1.657,8.403 5.513,8.403c3.839,0 5.359,-2.328 5.351,-8.193c-0.008,-6.333 -2.176,-9.044 -6.543,-8.184m34.847,0.032c-0.494,0.494 -0.347,15.649 0.154,15.917c0.434,0.233 8.138,0.312 8.715,0.09c0.259,-0.099 0.333,-0.448 0.333,-1.571c0,-1.732 0.186,-1.642 -3.572,-1.716l-2.626,-0.051l-0.062,-1.412c-0.074,-1.69 -0.227,-1.612 3.318,-1.688l2.416,-0.052l0,-2.941l-2.416,-0.052c-3.566,-0.076 -3.391,0.019 -3.317,-1.792l0.061,-1.517l2.941,-0.105l2.942,-0.105l0.062,-1.452c0.045,-1.019 -0.018,-1.503 -0.21,-1.625c-0.453,-0.288 -8.445,-0.221 -8.739,0.072m10.725,-0.112c-0.506,0.204 -0.367,15.756 0.144,16.029c0.238,0.128 2.024,0.218 4.32,0.218c4.761,0 4.727,0.013 4.727,-1.789c0,-1.628 0.165,-1.553 -3.571,-1.626l-2.627,-0.051l-0.063,-1.226c-0.093,-1.791 -0.043,-1.821 3.135,-1.821l2.706,0l0,-3.151l-2.706,0c-3.202,0 -3.225,-0.014 -3.135,-1.925l0.063,-1.331l2.823,-0.059c3.246,-0.068 3.375,-0.127 3.375,-1.556c0,-1.918 0.164,-1.854 -4.682,-1.835c-2.336,0.009 -4.365,0.064 -4.509,0.123m-59.521,0.648c-2.34,1.185 -3.025,2.94 -3.018,7.721c0.009,5.282 1.037,7.259 4.153,7.983c4.916,1.143 7.93,-3.888 6.668,-11.134c-0.744,-4.275 -4.288,-6.351 -7.803,-4.57m3.461,2.813c1.171,0.534 1.778,6.726 0.85,8.681c-0.619,1.304 -2.356,1.577 -3.505,0.551l-0.686,-0.612l-0.068,-3.304c-0.102,-4.959 0.869,-6.473 3.409,-5.316m13.157,0.293c0.8,0.723 1.196,5.822 0.615,7.914c-0.557,2.006 -3.494,2.238 -4.189,0.331c-0.364,-1.001 -0.512,-4.887 -0.241,-6.361c0.404,-2.195 2.389,-3.176 3.815,-1.884m0.308,17.287c-5.191,1.164 -8.365,4.924 -8.366,9.912c-0.002,5.36 2.89,8.101 10.843,10.274c3.807,1.041 4.636,1.734 4.616,3.859c-0.032,3.454 -4.322,5.115 -7.665,2.968c-1.047,-0.673 -1.456,-1.544 -1.61,-3.433c-0.164,-2.004 -0.329,-2.106 -3.424,-2.11c-3.337,-0.005 -3.323,-0.015 -3.32,2.355c0.015,13.089 20.783,14.722 22.918,1.801c1.043,-6.311 -2.41,-10.239 -10.866,-12.359c-3.97,-0.996 -5.323,-2.308 -4.713,-4.573c1.055,-3.918 7.516,-3.09 8.253,1.057c0.337,1.899 0.231,1.841 3.429,1.841c3.279,0 3.456,-0.086 3.456,-1.685c0,-6.646 -6.594,-11.467 -13.551,-9.907m-68.382,0.454c-0.276,0.174 -0.315,2.261 -0.315,16.706c0,14.444 0.039,16.532 0.315,16.706c0.173,0.109 1.42,0.2 2.772,0.202c3.427,0.005 3.11,1.042 3.11,-10.169c0,-6.68 0.064,-9.176 0.23,-9.01c0.126,0.126 0.728,2.154 1.339,4.506c0.61,2.353 1.599,6.168 2.198,8.479c1.401,5.408 1.469,5.622 1.864,5.935c1.051,0.831 5.107,0.237 5.38,-0.788c0.076,-0.289 0.413,-1.565 0.749,-2.836c0.335,-1.271 0.804,-3.044 1.042,-3.939c0.239,-0.896 0.616,-2.314 0.839,-3.151c0.524,-1.968 1.374,-5.188 1.775,-6.72c0.698,-2.665 0.748,-2.179 0.754,7.408c0.008,11.351 -0.318,10.288 3.155,10.288c1.987,0 2.561,-0.067 2.824,-0.33c0.503,-0.503 0.503,-32.66 0,-33.163c-0.277,-0.277 -0.972,-0.33 -4.31,-0.33l-3.98,0l-0.291,0.683c-0.16,0.375 -0.534,1.722 -0.83,2.993c-0.297,1.271 -0.738,3.162 -0.98,4.202c-0.242,1.04 -0.807,3.403 -1.256,5.252c-0.449,1.849 -1.058,4.401 -1.352,5.672c-0.294,1.271 -0.584,2.524 -0.645,2.784c-0.06,0.26 -0.237,0.473 -0.392,0.473c-0.269,0 -0.368,-0.33 -1.293,-4.307c-0.544,-2.339 -1.372,-5.874 -1.674,-7.143c-0.695,-2.929 -1.555,-6.627 -1.905,-8.193c-0.566,-2.537 -0.322,-2.417 -4.901,-2.413c-2.149,0.002 -4.049,0.093 -4.222,0.203m32.773,6.203c0,7.063 -0.002,7.049 1.337,8.473c2.687,2.858 7.914,1.848 9.194,-1.777c0.219,-0.619 0.288,-2.284 0.288,-6.908l0,-6.092l-2.941,0l-0.105,5.918c-0.126,7.131 -0.404,7.742 -3.176,6.995c-1.299,-0.349 -1.329,-0.497 -1.446,-7.031l-0.105,-5.882l-1.523,-0.062l-1.523,-0.061l0,6.427m12.485,-6.132c-0.285,0.745 0.013,12.85 0.33,13.378c2.597,4.329 8.788,3.747 10.204,-0.958c0.229,-0.764 0.3,-2.38 0.3,-6.857l0,-5.858l-1.523,0.061l-1.523,0.062l-0.11,5.882c-0.061,3.236 -0.184,6.035 -0.274,6.221c-0.503,1.04 -2.758,1.236 -3.676,0.32l-0.562,-0.562l-0.105,-5.931l-0.105,-5.93l-1.421,-0.062c-1.073,-0.047 -1.449,0.01 -1.535,0.234m41.226,-0.137c-0.401,0.402 -0.146,15.808 0.267,16.029c0.668,0.357 8.518,0.287 8.822,-0.079c0.148,-0.179 0.221,-0.828 0.183,-1.628l-0.063,-1.332l-6.092,-0.21l0,-2.941l2.416,-0.052c3.528,-0.075 3.361,0.011 3.361,-1.734c0,-1.744 0.167,-1.658 -3.361,-1.734l-2.416,-0.051l-0.062,-1.524l-0.062,-1.523l2.909,0c1.982,0 2.988,-0.08 3.16,-0.252c0.327,-0.327 0.327,-2.53 0,-2.857c-0.273,-0.273 -8.796,-0.378 -9.062,-0.112m10.715,0c-0.27,0.27 -0.162,15.72 0.112,15.994c0.394,0.395 8.646,0.353 8.976,-0.044c0.148,-0.179 0.221,-0.828 0.183,-1.628l-0.063,-1.332l-2.991,-0.058c-3.409,-0.066 -3.297,0.006 -3.167,-2.057l0.066,-1.036l5.672,-0.21l0.062,-1.517c0.073,-1.811 0.249,-1.717 -3.318,-1.793l-2.416,-0.051l0,-2.942l2.896,-0.058c2.884,-0.058 2.897,-0.061 3.099,-0.592c0.282,-0.743 0.253,-2.261 -0.05,-2.564c-0.272,-0.273 -8.795,-0.378 -9.061,-0.112m13.626,0.199c-0.629,0.629 -0.371,24.948 0.283,26.715c3.615,9.758 18.181,9.521 21.747,-0.353c0.519,-1.438 0.82,-25.805 0.326,-26.401c-0.343,-0.413 -5.914,-0.438 -6.255,-0.028c-0.154,0.186 -0.246,4.123 -0.288,12.343c-0.057,11.025 -0.094,12.128 -0.43,12.742c-1.535,2.807 -6.931,2.847 -8.351,0.062c-0.405,-0.794 -0.42,-1.24 -0.42,-12.791c0,-10.6 -0.038,-12.006 -0.33,-12.298c-0.492,-0.492 -5.789,-0.484 -6.282,0.009m26.69,-0.009c-0.295,0.295 -0.33,2.088 -0.33,16.582c0,19.051 -0.397,16.911 3.133,16.911c3.51,0 3.169,1.086 3.169,-10.09c0,-9.471 0.072,-10.24 0.721,-7.755c0.164,0.629 0.595,2.278 0.956,3.665c0.362,1.386 0.932,3.561 1.267,4.832c0.335,1.271 0.954,3.681 1.376,5.357c1.064,4.223 0.847,3.991 3.748,3.991c2.948,0 2.595,0.399 3.82,-4.306c0.643,-2.473 0.969,-3.706 1.689,-6.408c0.293,-1.098 0.857,-3.272 1.252,-4.832c1.249,-4.918 1.23,-4.993 1.348,5.483c0.084,7.514 0.162,9.438 0.393,9.716c0.329,0.396 4.9,0.514 5.489,0.142c0.276,-0.174 0.315,-2.262 0.315,-16.706c0,-14.445 -0.039,-16.532 -0.315,-16.706c-0.173,-0.11 -2.089,-0.201 -4.257,-0.203l-3.943,-0.003l-0.299,0.683c-0.164,0.375 -0.632,2.101 -1.038,3.834c-0.407,1.733 -0.984,4.191 -1.281,5.462c-2.309,9.853 -2.891,12.08 -3.159,12.08c-0.238,0 -0.475,-0.834 -1.469,-5.147c-0.159,-0.694 -0.572,-2.443 -0.916,-3.887c-0.345,-1.444 -0.878,-3.713 -1.184,-5.042c-1.207,-5.23 -1.777,-7.409 -2.01,-7.69c-0.38,-0.458 -8.013,-0.425 -8.475,0.037m-104.602,17.457c-0.336,0.336 -0.152,12.671 0.199,13.368c1.719,3.413 6.506,4.128 9.119,1.362c1.318,-1.395 1.355,-1.616 1.43,-8.402l0.069,-6.242l-0.503,-0.126c-0.277,-0.069 -0.969,-0.097 -1.539,-0.061l-1.037,0.066l-0.105,5.882c-0.077,4.302 -0.179,6.012 -0.38,6.365c-0.572,1.002 -2.573,1.214 -3.547,0.377l-0.59,-0.507l-0.054,-5.638c-0.069,-7.113 0.059,-6.584 -1.595,-6.584c-0.73,0 -1.39,0.063 -1.467,0.14m12.404,-0.009c-0.33,0.33 -0.168,12.443 0.177,13.269c1.503,3.603 7.185,4.297 9.463,1.155c0.987,-1.362 1.03,-1.71 1.03,-8.252l0,-6.198l-2.941,0l-0.105,6.018c-0.117,6.71 -0.126,6.749 -1.604,7.027c-2.701,0.506 -2.889,0.06 -3.018,-7.153l-0.105,-5.892l-1.374,-0.061c-0.756,-0.034 -1.442,0.006 -1.523,0.087m41.123,0.132c-0.055,0.145 -0.076,3.761 -0.046,8.036l0.055,7.772l9.244,0l0.064,-1.36c0.087,-1.857 0.016,-1.896 -3.465,-1.896l-2.796,0l0,-2.941l2.586,0c3.248,0 3.341,-0.055 3.255,-1.896l-0.064,-1.36l-5.672,-0.21l-0.063,-1.452c-0.079,-1.829 -0.134,-1.798 3.119,-1.802c3.116,-0.003 3.836,-0.678 3.014,-2.822c-0.17,-0.442 -9.062,-0.509 -9.231,-0.069m10.715,0c-0.056,0.145 -0.077,3.761 -0.046,8.036l0.055,7.772l9.243,0l0.064,-1.344c0.084,-1.788 0.082,-1.789 -3.277,-1.912l-2.879,-0.105l0,-2.731l2.416,-0.052c3.567,-0.076 3.391,0.019 3.318,-1.793l-0.062,-1.516l-5.672,-0.21l-0.063,-1.332c-0.09,-1.91 -0.066,-1.925 3.128,-1.925c3.184,0 3.615,-0.384 3,-2.678c-0.152,-0.567 -9.011,-0.768 -9.225,-0.21" style="fill:#ec4e55;"/></svg>